<svg width="2177" height="1338" viewBox="0 0 2177 1338" fill="none" xmlns="http://www.w3.org/2000/svg">
<g filter="url(#filter0_f_2005_37)">
<path d="M701.003 1016C910.321 1016 1080.01 929.744 1080.01 823.342C1080.01 716.94 910.321 630.684 701.003 630.684C491.686 630.684 322 716.94 322 823.342C322 929.744 491.686 1016 701.003 1016Z" fill="#F5F7FA"/>
<path d="M1411.24 946.384C1620.55 946.384 1790.24 860.128 1790.24 753.726C1790.24 647.324 1620.55 561.068 1411.24 561.068C1201.92 561.068 1032.23 647.324 1032.23 753.726C1032.23 860.128 1201.92 946.384 1411.24 946.384Z" fill="#C3CFE2"/>
<path d="M772.133 858.96C981.451 858.96 1151.14 772.704 1151.14 666.302C1151.14 559.9 981.451 473.644 772.133 473.644C562.815 473.644 393.13 559.9 393.13 666.302C393.13 772.704 562.815 858.96 772.133 858.96Z" fill="#F5F7FA"/>
<path d="M1098.05 707.316C1307.37 707.316 1477.06 621.06 1477.06 514.658C1477.06 408.256 1307.37 322 1098.05 322C888.737 322 719.051 408.256 719.051 514.658C719.051 621.06 888.737 707.316 1098.05 707.316Z" fill="#F5F7FA"/>
<path d="M1126.72 896.736C1336.04 896.736 1505.72 810.48 1505.72 704.078C1505.72 597.676 1336.04 511.42 1126.72 511.42C917.401 511.42 747.715 597.676 747.715 704.078C747.715 810.48 917.401 896.736 1126.72 896.736Z" fill="#C3CFE2"/>
<path d="M1476 726.204C1685.31 726.204 1855 639.948 1855 533.546C1855 427.144 1685.31 340.888 1476 340.888C1266.68 340.888 1096.99 427.144 1096.99 533.546C1096.99 639.948 1266.68 726.204 1476 726.204Z" fill="#F5F7FA"/>
</g>
<defs>
<filter id="filter0_f_2005_37" x="0" y="0" width="2177" height="1338" filterUnits="userSpaceOnUse" color-interpolation-filters="sRGB">
<feFlood flood-opacity="0" result="BackgroundImageFix"/>
<feBlend mode="normal" in="SourceGraphic" in2="BackgroundImageFix" result="shape"/>
<feGaussianBlur stdDeviation="161" result="effect1_foregroundBlur_2005_37"/>
</filter>
</defs>
</svg>
