<!--?xml version="1.0" standalone="no"?-->
              <svg id="sw-js-blob-svg" viewBox="0 0 100 100" xmlns="http://www.w3.org/2000/svg" version="1.1">
                    <defs> 
                        <linearGradient id="sw-gradient" x1="0" x2="1" y1="1" y2="0">
                            <stop id="stop1" stop-color="rgba(255, 8, 68, 1)" offset="0%"></stop>
                            <stop id="stop2" stop-color="rgba(255, 236, 219, 1)" offset="100%"></stop>
                        </linearGradient>
                    </defs>
                <path fill="url(#sw-gradient)" d="M14.6,-17.2C22.8,-10.6,35.9,-9.6,37.2,-6C38.5,-2.4,28,3.9,20.8,7.9C13.6,12,9.7,13.9,4.3,18.8C-1,23.8,-7.7,31.7,-11.8,30.9C-16,30.1,-17.5,20.5,-18.5,13.3C-19.5,6.1,-20,1.3,-21.9,-6.7C-23.8,-14.6,-27.3,-25.6,-23.9,-33.1C-20.5,-40.5,-10.2,-44.5,-3.5,-40.3C3.2,-36.2,6.5,-23.9,14.6,-17.2Z" width="100%" height="100%" transform="translate(50 50)" stroke-width="0" style="transition: 0.3s;"></path>
              </svg>