<svg width="318" height="326" viewBox="0 0 318 326" fill="none" xmlns="http://www.w3.org/2000/svg">
<g filter="url(#filter0_d_2005_116)">
<path d="M199.292 93.2279C241.899 116.595 304.542 112.735 312.748 127.461C320.955 142.187 274.782 175.93 242.938 197.687C211.152 219.876 193.752 230.51 170.949 255.028C148.677 279.915 121.42 318.192 101.538 317.298C81.1813 316.467 68.6165 275.97 59.7853 245.52C50.954 215.07 45.8562 194.666 32.3056 161.324C18.8118 128.415 -4.02578 83.1243 7.82179 48.6332C19.7262 14.5737 66.2589 -9.11804 100.394 4.8272C134.473 18.3409 157.102 69.3667 199.292 93.2279Z" fill="url(#paint0_linear_2005_116)"/>
</g>
<defs>
<filter id="filter0_d_2005_116" x="0.521194" y="0.758301" width="317.188" height="324.555" filterUnits="userSpaceOnUse" color-interpolation-filters="sRGB">
<feFlood flood-opacity="0" result="BackgroundImageFix"/>
<feColorMatrix in="SourceAlpha" type="matrix" values="0 0 0 0 0 0 0 0 0 0 0 0 0 0 0 0 0 0 127 0" result="hardAlpha"/>
<feOffset dy="4"/>
<feGaussianBlur stdDeviation="2"/>
<feComposite in2="hardAlpha" operator="out"/>
<feColorMatrix type="matrix" values="0 0 0 0 0 0 0 0 0 0 0 0 0 0 0 0 0 0 0.25 0"/>
<feBlend mode="normal" in2="BackgroundImageFix" result="effect1_dropShadow_2005_116"/>
<feBlend mode="normal" in="SourceGraphic" in2="effect1_dropShadow_2005_116" result="shape"/>
</filter>
<linearGradient id="paint0_linear_2005_116" x1="37.474" y1="325.983" x2="312.792" y2="-11.7028" gradientUnits="userSpaceOnUse">
<stop stop-color="#FF0844"/>
<stop offset="1" stop-color="#FFECDB"/>
</linearGradient>
</defs>
</svg>
